<svg width="29" height="33" viewBox="0 0 29 33" fill="none" xmlns="http://www.w3.org/2000/svg">
<path d="M2.20435 13.26C2.26469 12.5082 2.60598 11.8067 3.16026 11.2953C3.71454 10.7838 4.44114 10.4998 5.19535 10.5H23.2823C24.0366 10.4998 24.7632 10.7838 25.3174 11.2953C25.8717 11.8067 26.213 12.5082 26.2734 13.26L27.4778 28.26C27.511 28.6728 27.4583 29.088 27.3231 29.4794C27.1879 29.8708 26.9731 30.23 26.6923 30.5344C26.4115 30.8387 26.0707 31.0816 25.6914 31.2478C25.3121 31.414 24.9025 31.4999 24.4883 31.5H3.98935C3.57523 31.4999 3.16563 31.414 2.78632 31.2478C2.40701 31.0816 2.06622 30.8387 1.78539 30.5344C1.50457 30.23 1.2898 29.8708 1.15461 29.4794C1.01941 29.088 0.966721 28.6728 0.99985 28.26L2.20435 13.26Z" stroke="black" stroke-width="2" stroke-linecap="round" stroke-linejoin="round"/>
<path d="M20.2388 15V7.5C20.2388 5.9087 19.6066 4.38258 18.4814 3.25736C17.3562 2.13214 15.8301 1.5 14.2388 1.5C12.6475 1.5 11.1213 2.13214 9.99613 3.25736C8.87091 4.38258 8.23877 5.9087 8.23877 7.5V15" stroke="black" stroke-width="2" stroke-linecap="round" stroke-linejoin="round"/>
</svg>
