<svg width="20" height="18" viewBox="0 0 20 18" fill="none" xmlns="http://www.w3.org/2000/svg">
<path d="M18.9444 7.57678H1.05556C0.472588 7.57678 0 8.1557 0 8.86984V9.00595C0 9.72008 0.472588 10.299 1.05556 10.299H18.9444C19.5274 10.299 20 9.72008 20 9.00595V8.86984C20 8.1557 19.5274 7.57678 18.9444 7.57678Z" fill="black"/>
<path d="M18.9444 14.3821H1.05556C0.472588 14.3821 0 14.961 0 15.6751V15.8112C0 16.5254 0.472588 17.1043 1.05556 17.1043H18.9444C19.5274 17.1043 20 16.5254 20 15.8112V15.6751C20 14.961 19.5274 14.3821 18.9444 14.3821Z" fill="black"/>
<path d="M18.9444 0.771118H1.05556C0.472588 0.771118 0 1.35004 0 2.06417V2.20029C0 2.91442 0.472588 3.49334 1.05556 3.49334H18.9444C19.5274 3.49334 20 2.91442 20 2.20029V2.06417C20 1.35004 19.5274 0.771118 18.9444 0.771118Z" fill="black"/>
</svg>
