<svg width="19" height="19" viewBox="0 0 19 19" fill="none" xmlns="http://www.w3.org/2000/svg">
<path d="M7.93642 15.8945C9.64432 15.8941 11.303 15.3224 12.6483 14.2704L16.8782 18.5L18.2388 17.1395L14.0089 12.9099C15.0616 11.5645 15.6337 9.90549 15.6341 8.19724C15.6341 3.95318 12.1807 0.5 7.93642 0.5C3.69213 0.5 0.23877 3.95318 0.23877 8.19724C0.23877 12.4413 3.69213 15.8945 7.93642 15.8945ZM7.93642 2.42431C11.1204 2.42431 13.7097 5.01347 13.7097 8.19724C13.7097 11.381 11.1204 13.9702 7.93642 13.9702C4.75248 13.9702 2.16318 11.381 2.16318 8.19724C2.16318 5.01347 4.75248 2.42431 7.93642 2.42431Z" fill="black"/>
</svg>
