<svg width="33" height="33" viewBox="0 0 33 33" fill="none" xmlns="http://www.w3.org/2000/svg">
<path d="M27.2634 15.4151H9.47343L14.9184 8.77185C15.173 8.46069 15.2955 8.05954 15.259 7.65664C15.2224 7.25374 15.0298 6.8821 14.7234 6.62347C14.4171 6.36484 14.0222 6.24042 13.6255 6.27757C13.2289 6.31471 12.863 6.51039 12.6084 6.82155L5.10843 15.9636C5.05797 16.0363 5.01285 16.1127 4.97343 16.1921C4.97343 16.2683 4.97343 16.314 4.86843 16.3902C4.80044 16.5649 4.76484 16.7509 4.76343 16.9387C4.76484 17.1266 4.80044 17.3126 4.86843 17.4873C4.86843 17.5634 4.86843 17.6092 4.97343 17.6853C5.01285 17.7648 5.05797 17.8412 5.10843 17.9139L12.6084 27.0559C12.7495 27.2279 12.9261 27.3662 13.1257 27.461C13.3253 27.5558 13.5431 27.6048 13.7634 27.6044C14.1139 27.6051 14.4536 27.4812 14.7234 27.254C14.8753 27.1261 15.0009 26.969 15.0929 26.7917C15.1849 26.6144 15.2416 26.4205 15.2597 26.2209C15.2778 26.0213 15.257 25.8201 15.1985 25.6287C15.1399 25.4374 15.0447 25.2596 14.9184 25.1056L9.47343 18.4624H27.2634C27.6613 18.4624 28.0428 18.3019 28.3241 18.0161C28.6054 17.7304 28.7634 17.3428 28.7634 16.9387C28.7634 16.5346 28.6054 16.1471 28.3241 15.8613C28.0428 15.5756 27.6613 15.4151 27.2634 15.4151Z" fill="#80007A"/>
</svg>
