<svg width="21" height="13" viewBox="0 0 21 13" fill="none" xmlns="http://www.w3.org/2000/svg">
<path d="M1.86288 0.0599365C1.67115 0.0599365 1.48928 0.098087 1.32169 0.160865L9.81247 6.99742C10.184 7.29699 10.5985 7.29715 10.9711 6.99742L19.4693 0.15386C19.3042 0.0931717 19.1241 0.0601761 18.9357 0.0601761L1.86288 0.0599365ZM0.414726 1.24259C0.404858 1.30794 0.399414 1.37636 0.399414 1.44445V10.6752C0.399414 11.4423 1.05202 12.0599 1.8629 12.0599H18.9359C19.7466 12.0599 20.3994 11.4425 20.3994 10.6752V1.44445C20.3994 1.37636 20.3941 1.30794 20.3841 1.24259L11.9238 8.0503C11.0468 8.756 9.73676 8.75711 8.85972 8.0503L0.414726 1.24259Z" fill="#EDBE38"/>
</svg>
