<svg width="25" height="25" viewBox="0 0 25 25" fill="none" xmlns="http://www.w3.org/2000/svg">
<path d="M21.5327 6.39229H11.3019C11.3019 5.59011 10.6464 4.93774 9.84035 4.93774H8.37881C7.57277 4.93774 6.91727 5.59011 6.91727 6.39229H3.9942C3.59081 6.39229 3.26343 6.71738 3.26343 7.11956C3.26343 7.52174 3.59081 7.84684 3.9942 7.84684H6.91727C6.91727 8.64902 7.57277 9.30138 8.37881 9.30138H9.84035C10.6464 9.30138 11.3019 8.64902 11.3019 7.84684H21.5327C21.936 7.84684 22.2634 7.52174 22.2634 7.11956C22.2634 6.71738 21.936 6.39229 21.5327 6.39229ZM8.37881 7.84684V6.39229H9.84035L9.84108 7.11665C9.84108 7.11811 9.84035 7.11884 9.84035 7.11956C9.84035 7.12029 9.84108 7.12102 9.84108 7.12247V7.84684H8.37881Z" fill="#242424"/>
<path d="M21.5327 12.2104H17.148C17.148 11.4082 16.4925 10.7559 15.6865 10.7559H14.225C13.4189 10.7559 12.7634 11.4082 12.7634 12.2104H3.9942C3.59081 12.2104 3.26343 12.5355 3.26343 12.9377C3.26343 13.3399 3.59081 13.665 3.9942 13.665H12.7634C12.7634 14.4671 13.4189 15.1195 14.225 15.1195H15.6865C16.4925 15.1195 17.148 14.4671 17.148 13.665H21.5327C21.936 13.665 22.2634 13.3399 22.2634 12.9377C22.2634 12.5355 21.936 12.2104 21.5327 12.2104ZM14.225 13.665V12.2104H15.6865L15.6872 12.9348C15.6872 12.9362 15.6865 12.937 15.6865 12.9377C15.6865 12.9384 15.6872 12.9391 15.6872 12.9406V13.665H14.225Z" fill="#242424"/>
<path d="M21.5327 18.0288H11.3019C11.3019 17.2266 10.6464 16.5742 9.84035 16.5742H8.37881C7.57277 16.5742 6.91727 17.2266 6.91727 18.0288H3.9942C3.59081 18.0288 3.26343 18.3539 3.26343 18.756C3.26343 19.1582 3.59081 19.4833 3.9942 19.4833H6.91727C6.91727 20.2855 7.57277 20.9379 8.37881 20.9379H9.84035C10.6464 20.9379 11.3019 20.2855 11.3019 19.4833H21.5327C21.936 19.4833 22.2634 19.1582 22.2634 18.756C22.2634 18.3539 21.936 18.0288 21.5327 18.0288ZM8.37881 19.4833V18.0288H9.84035L9.84108 18.7531C9.84108 18.7546 9.84035 18.7553 9.84035 18.756C9.84035 18.7568 9.84108 18.7575 9.84108 18.7589V19.4833H8.37881Z" fill="#242424"/>
</svg>
