<svg width="17" height="19" viewBox="0 0 17 19" fill="none" xmlns="http://www.w3.org/2000/svg">
<path fill-rule="evenodd" clip-rule="evenodd" d="M5.40039 0.25H11.4004C14.1614 0.25 16.4004 2.76887 16.4004 5.875V12.625C16.4004 15.7311 14.1614 18.25 11.4004 18.25H5.40039C2.63939 18.25 0.400391 15.7311 0.400391 12.625V5.875C0.400391 2.76887 2.63939 0.25 5.40039 0.25ZM11.4004 16.5625C13.3304 16.5625 14.9004 14.7963 14.9004 12.625V5.875C14.9004 3.70375 13.3304 1.9375 11.4004 1.9375H5.40039C3.47039 1.9375 1.90039 3.70375 1.90039 5.875V12.625C1.90039 14.7963 3.47039 16.5625 5.40039 16.5625H11.4004Z" fill="url(#paint0_linear_4675_6648)"/>
<path fill-rule="evenodd" clip-rule="evenodd" d="M4.39844 9.25C4.39844 6.76487 6.17811 4.75 8.37315 4.75C10.5682 4.75 12.3479 6.76487 12.3479 9.25C12.3479 11.7351 10.5682 13.75 8.37315 13.75C6.17811 13.75 4.39844 11.7351 4.39844 9.25ZM5.88672 9.25C5.88672 10.8003 7.00163 12.0625 8.37093 12.0625C9.74023 12.0625 10.8551 10.8003 10.8551 9.25C10.8551 7.69863 9.74023 6.4375 8.37093 6.4375C7.00163 6.4375 5.88672 7.69863 5.88672 9.25Z" fill="url(#paint1_linear_4675_6648)"/>
<defs>
<linearGradient id="paint0_linear_4675_6648" x1="20.1483" y1="-6.92328" x2="-12.0321" y2="24.2607" gradientUnits="userSpaceOnUse">
<stop stop-color="#BD992F"/>
<stop offset="1" stop-color="#FACE4B"/>
</linearGradient>
<linearGradient id="paint1_linear_4675_6648" x1="14.21" y1="1.16336" x2="-1.8767" y2="16.6534" gradientUnits="userSpaceOnUse">
<stop stop-color="#BD992F"/>
<stop offset="1" stop-color="#FACE4B"/>
</linearGradient>
</defs>
</svg>
