<svg width="18" height="22" viewBox="0 0 18 22" fill="none" xmlns="http://www.w3.org/2000/svg">
<path d="M16.2492 4.04653C14.7158 1.54957 11.967 0.0599365 8.90067 0.0599365C4.21336 0.0599365 0.399414 3.63969 0.399414 8.04324C0.399414 9.42458 0.808071 10.8159 1.58347 12.076L8.1077 20.6334C8.27189 20.8959 8.57579 21.0599 8.90055 21.0599C9.21831 21.0599 9.52219 20.9057 9.65847 20.6858L16.2525 12.0234C17.7823 9.52322 17.7823 6.54057 16.2491 4.04684L16.2492 4.04653ZM12.0931 7.48521C12.0931 9.13902 10.6611 10.4843 8.90079 10.4843C7.14401 10.4843 5.71204 9.13902 5.71204 7.48521C5.71204 5.83477 7.14058 4.48947 8.90079 4.48947C10.6611 4.48947 12.0931 5.83477 12.0931 7.48521Z" fill="#EDBE38"/>
</svg>
