<svg width="50" height="40" viewBox="0 0 50 40" fill="none" xmlns="http://www.w3.org/2000/svg">
<rect width="50" height="40" rx="4" fill="url(#paint0_linear_649_11844)"/>
<g clip-path="url(#clip0_649_11844)">
<path d="M31.4163 10.926C30.9522 10.926 30.5071 11.1308 30.1789 11.4955C29.8507 11.8601 29.6663 12.3547 29.6663 12.8704C29.6663 13.3861 29.8507 13.8807 30.1789 14.2454C30.5071 14.61 30.9522 14.8149 31.4163 14.8149C31.8805 14.8149 32.3256 14.61 32.6538 14.2454C32.9819 13.8807 33.1663 13.3861 33.1663 12.8704C33.1663 12.3547 32.9819 11.8601 32.6538 11.4955C32.3256 11.1308 31.8805 10.926 31.4163 10.926ZM28.4997 12.8704C28.4996 12.1101 28.7401 11.3739 29.1792 10.7907C29.6183 10.2074 30.228 9.81435 30.9015 9.68015C31.5751 9.54595 32.2697 9.67919 32.8638 10.0566C33.4579 10.4339 33.9137 11.0314 34.1514 11.7444C34.3891 12.4574 34.3936 13.2406 34.1641 13.9569C33.9345 14.6733 33.4856 15.2771 32.8959 15.6628C32.3062 16.0485 31.6131 16.1916 30.9381 16.0669C30.263 15.9422 29.6489 15.5578 29.2032 14.9808L21.3655 19.0252C21.5457 19.6597 21.5457 20.3404 21.3655 20.9749L29.2032 25.0193C29.6743 24.4105 30.3321 24.0177 31.049 23.917C31.766 23.8163 32.4911 24.015 33.0837 24.4745C33.6763 24.9339 34.0944 25.6215 34.2568 26.4039C34.4192 27.1863 34.3144 28.0079 33.9627 28.7093C33.611 29.4108 33.0375 29.9422 32.3532 30.2006C31.669 30.4589 30.9229 30.4259 30.2593 30.1078C29.5958 29.7897 29.0621 29.2093 28.7618 28.479C28.4615 27.7486 28.4159 26.9204 28.6338 26.1549L20.7962 22.1104C20.4082 22.6128 19.891 22.9712 19.3142 23.1372C18.7375 23.3032 18.1288 23.269 17.57 23.0392C17.0113 22.8093 16.5293 22.3949 16.1889 21.8515C15.8485 21.3082 15.666 20.6621 15.666 20C15.666 19.338 15.8485 18.6919 16.1889 18.1486C16.5293 17.6052 17.0113 17.1908 17.57 16.9609C18.1288 16.7311 18.7375 16.6969 19.3142 16.8629C19.891 17.0289 20.4082 17.3873 20.7962 17.8897L28.6338 13.8452C28.5446 13.5298 28.4994 13.2011 28.4997 12.8704ZM18.583 18.0556C18.1189 18.0556 17.6737 18.2605 17.3456 18.6251C17.0174 18.9898 16.833 19.4844 16.833 20C16.833 20.5157 17.0174 21.0103 17.3456 21.375C17.6737 21.7396 18.1189 21.9445 18.583 21.9445C19.0471 21.9445 19.4922 21.7396 19.8204 21.375C20.1486 21.0103 20.333 20.5157 20.333 20C20.333 19.4844 20.1486 18.9898 19.8204 18.6251C19.4922 18.2605 19.0471 18.0556 18.583 18.0556ZM31.4163 25.1852C30.9522 25.1852 30.5071 25.3901 30.1789 25.7547C29.8507 26.1194 29.6663 26.614 29.6663 27.1297C29.6663 27.6454 29.8507 28.14 30.1789 28.5046C30.5071 28.8693 30.9522 29.0741 31.4163 29.0741C31.8805 29.0741 32.3256 28.8693 32.6538 28.5046C32.9819 28.14 33.1663 27.6454 33.1663 27.1297C33.1663 26.614 32.9819 26.1194 32.6538 25.7547C32.3256 25.3901 31.8805 25.1852 31.4163 25.1852Z" fill="#242424"/>
</g>
<defs>
<linearGradient id="paint0_linear_649_11844" x1="61.7124" y1="-15.9406" x2="-6.54056" y2="77.068" gradientUnits="userSpaceOnUse">
<stop stop-color="#BD992F"/>
<stop offset="1" stop-color="#FACE4B"/>
</linearGradient>
<clipPath id="clip0_649_11844">
<rect width="18.6667" height="20.7407" fill="white" transform="translate(15.6665 9.62964)"/>
</clipPath>
</defs>
</svg>
