<svg width="25" height="25" viewBox="0 0 25 25" fill="none" xmlns="http://www.w3.org/2000/svg">
<path d="M15.161 6.53774H5.56313C5.351 6.53774 5.14756 6.45346 4.99757 6.30343C4.84757 6.1534 4.76331 5.94992 4.76331 5.73774C4.76331 5.52557 4.84757 5.32209 4.99757 5.17206C5.14756 5.02203 5.351 4.93774 5.56313 4.93774H15.161C15.3731 4.93774 15.5765 5.02203 15.7265 5.17206C15.8765 5.32209 15.9608 5.52557 15.9608 5.73774C15.9608 5.94992 15.8765 6.1534 15.7265 6.30343C15.5765 6.45346 15.3731 6.53774 15.161 6.53774Z" fill="#242424"/>
<path d="M13.5613 11.3378H5.56313C5.351 11.3378 5.14756 11.2535 4.99757 11.1035C4.84757 10.9534 4.76331 10.75 4.76331 10.5378C4.76331 10.3256 4.84757 10.1221 4.99757 9.97211C5.14756 9.82208 5.351 9.73779 5.56313 9.73779H13.5613C13.7735 9.73779 13.9769 9.82208 14.1269 9.97211C14.2769 10.1221 14.3612 10.3256 14.3612 10.5378C14.3612 10.75 14.2769 10.9534 14.1269 11.1035C13.9769 11.2535 13.7735 11.3378 13.5613 11.3378Z" fill="#242424"/>
<path d="M11.9617 16.1378H5.56313C5.351 16.1378 5.14756 16.0536 4.99757 15.9035C4.84757 15.7535 4.76331 15.55 4.76331 15.3378C4.76331 15.1257 4.84757 14.9222 4.99757 14.7722C5.14756 14.6221 5.351 14.5378 5.56313 14.5378H11.9617C12.1738 14.5378 12.3773 14.6221 12.5273 14.7722C12.6773 14.9222 12.7615 15.1257 12.7615 15.3378C12.7615 15.55 12.6773 15.7535 12.5273 15.9035C12.3773 16.0536 12.1738 16.1378 11.9617 16.1378Z" fill="#242424"/>
<path d="M10.3621 20.9376H5.56313C5.351 20.9376 5.14756 20.8533 4.99757 20.7033C4.84757 20.5533 4.76331 20.3498 4.76331 20.1376C4.76331 19.9255 4.84757 19.722 4.99757 19.572C5.14756 19.4219 5.351 19.3376 5.56313 19.3376H10.3621C10.5742 19.3376 10.7776 19.4219 10.9276 19.572C11.0776 19.722 11.1619 19.9255 11.1619 20.1376C11.1619 20.3498 11.0776 20.5533 10.9276 20.7033C10.7776 20.8533 10.5742 20.9376 10.3621 20.9376Z" fill="black"/>
<path d="M17.5604 19.3377C17.3482 19.3377 17.1448 19.2534 16.9948 19.1034C16.8448 18.9534 16.7605 18.7499 16.7605 18.5377V5.73774C16.7605 5.52557 16.8448 5.32209 16.9948 5.17206C17.1448 5.02203 17.3482 4.93774 17.5604 4.93774C17.7725 4.93774 17.9759 5.02203 18.1259 5.17206C18.2759 5.32209 18.3602 5.52557 18.3602 5.73774V18.5377C18.3602 18.7499 18.2759 18.9534 18.1259 19.1034C17.9759 19.2534 17.7725 19.3377 17.5604 19.3377Z" fill="black"/>
<path d="M17.561 20.9378C17.4557 20.9384 17.3514 20.9183 17.2539 20.8785C17.1565 20.8386 17.0678 20.78 16.9931 20.7058L14.5936 18.3058C14.443 18.1552 14.3584 17.9509 14.3584 17.7378C14.3584 17.5248 14.443 17.3205 14.5936 17.1698C14.7443 17.0192 14.9485 16.9346 15.1615 16.9346C15.3745 16.9346 15.5788 17.0192 15.7294 17.1698L17.561 19.0098L19.3926 17.1698C19.5432 17.0192 19.7475 16.9346 19.9604 16.9346C20.1734 16.9346 20.3777 17.0192 20.5283 17.1698C20.6789 17.3205 20.7635 17.5248 20.7635 17.7378C20.7635 17.9509 20.6789 18.1552 20.5283 18.3058L18.1289 20.7058C18.0541 20.78 17.9655 20.8386 17.868 20.8785C17.7706 20.9183 17.6662 20.9384 17.561 20.9378Z" fill="black"/>
</svg>
