<svg width="19" height="16" viewBox="0 0 19 16" fill="none" xmlns="http://www.w3.org/2000/svg">
<path d="M18.4004 2.52577C17.731 2.82692 17.0178 3.02654 16.2741 3.12346C17.0391 2.655 17.623 1.91885 17.8975 1.03154C17.1843 1.46769 16.3968 1.77577 15.5575 1.94769C14.8803 1.20808 13.915 0.75 12.862 0.75C10.819 0.75 9.17427 2.45077 9.17427 4.53577C9.17427 4.83577 9.19902 5.12423 9.25977 5.39885C6.19189 5.24538 3.47727 3.73731 1.65364 1.44C1.33527 2.00654 1.14852 2.655 1.14852 3.35308C1.14852 4.66385 1.80664 5.82577 2.78764 6.49846C2.19477 6.48692 1.61314 6.31038 1.12039 6.03231C1.12039 6.04385 1.12039 6.05885 1.12039 6.07385C1.12039 7.91308 2.39952 9.44077 4.07689 9.79269C3.77652 9.87692 3.44914 9.91731 3.10939 9.91731C2.87314 9.91731 2.63464 9.90346 2.41077 9.85269C2.88889 11.3515 4.24564 12.4535 5.85889 12.4892C4.60339 13.4965 3.00927 14.1035 1.28352 14.1035C0.980891 14.1035 0.690641 14.0896 0.400391 14.0515C2.03502 15.1327 3.97227 15.75 6.06139 15.75C12.8519 15.75 16.5644 9.98077 16.5644 4.98C16.5644 4.81269 16.5588 4.65115 16.5509 4.49077C17.2833 3.95769 17.8986 3.29192 18.4004 2.52577Z" fill="url(#paint0_linear_4675_6647)"/>
<defs>
<linearGradient id="paint0_linear_4675_6647" x1="22.6168" y1="-5.22773" x2="-3.27354" y2="28.642" gradientUnits="userSpaceOnUse">
<stop stop-color="#BD992F"/>
<stop offset="1" stop-color="#FACE4B"/>
</linearGradient>
</defs>
</svg>
