<svg width="37" height="37" viewBox="0 0 37 37" fill="none" xmlns="http://www.w3.org/2000/svg">
<path d="M8.23877 19.9H10.461V17.1H8.23877V19.9ZM8.23877 25.5H10.461V22.7H8.23877V25.5ZM8.23877 14.3H10.461V11.5H8.23877V14.3ZM12.6832 19.9H28.2388V17.1H12.6832V19.9ZM12.6832 25.5H28.2388V22.7H12.6832V25.5ZM12.6832 11.5V14.3H28.2388V11.5H12.6832ZM8.23877 19.9H10.461V17.1H8.23877V19.9ZM8.23877 25.5H10.461V22.7H8.23877V25.5ZM8.23877 14.3H10.461V11.5H8.23877V14.3ZM12.6832 19.9H28.2388V17.1H12.6832V19.9ZM12.6832 25.5H28.2388V22.7H12.6832V25.5ZM12.6832 11.5V14.3H28.2388V11.5H12.6832Z" fill="#80007A"/>
</svg>
